<svg width="66" height="66" xmlns="http://www.w3.org/2000/svg" viewBox="66 518 66 66">
    <svg width="66" height="66" xmlns="http://www.w3.org/2000/svg"
         fill="#ff9bcd" opacity=".361" x="66" y="518">
        <svg xmlns="http://www.w3.org/2000/svg"
             width="66" height="66" viewBox="0 0 65.114 65.114">
            <path paint-order="stroke fill markers" fill-rule="evenodd"
                  d="M32.557 65.114C14.553 65.114 0 50.561 0 32.557S14.553 0 32.557 0s32.557 14.553 32.557 32.557-14.553 32.557-32.557 32.557z"/>
        </svg>
    </svg>
    <svg width="30" height="37" xmlns="http://www.w3.org/2000/svg"
         viewBox="0 0.36 30 36.279" fill="#d10263" x="84" y="532">
        <svg xmlns="http://www.w3.org/2000/svg" width="30" height="37" viewBox="0 1 29.323 35.461">
            <path paint-order="stroke fill markers" fill-rule="evenodd"
                  d="M26.255 5.092h-6.479V4.069A3.072 3.072 0 0 0 16.708 1h-4.092a3.072 3.072 0 0 0-3.069 3.069v1.023H3.07A3.072 3.072 0 0 0 0 8.16a3.073 3.073 0 0 0 2.728 3.05v17.409a3.072 3.072 0 0 0 3.068 3.069h5.621L7.256 34.6a1.023 1.023 0 0 0-.252 1.425c.32.456.968.571 1.425.251l5.21-3.647v2.81a1.023 1.023 0 0 0 2.046 0v-2.81l5.21 3.647c.457.32 1.105.205 1.424-.251.324-.463.212-1.1-.251-1.425l-4.161-2.912h5.62a3.072 3.072 0 0 0 3.069-3.07V11.21a3.073 3.073 0 0 0 2.728-3.05 3.072 3.072 0 0 0-3.069-3.068zM11.593 4.069c0-.564.46-1.023 1.023-1.023h4.092c.564 0 1.023.459 1.023 1.023v1.023h-6.138V4.069zm2.046 15.344h2.046a2.73 2.73 0 0 1 2.728 2.727 2.731 2.731 0 0 1-2.728 2.728v1.705a1.023 1.023 0 0 1-2.046 0v-1.705h-1.705a1.023 1.023 0 1 1 0-2.046h3.75a.683.683 0 0 0 0-1.364H13.64a2.73 2.73 0 0 1-2.728-2.727 2.73 2.73 0 0 1 2.728-2.728v-1.705a1.023 1.023 0 0 1 2.046 0v1.705h1.705a1.023 1.023 0 1 1 0 2.046h-3.751a.683.683 0 0 0 0 1.364zm12.616-10.23H3.069A1.024 1.024 0 0 1 2.046 8.16c0-.564.459-1.022 1.023-1.022h23.186a1.024 1.024 0 0 1 0 2.045z"/>
        </svg>
    </svg>
</svg>
