<svg width="66" height="66" xmlns="http://www.w3.org/2000/svg" viewBox="66 722 66 66">
    <svg width="31" height="31" xmlns="http://www.w3.org/2000/svg"
         viewBox="84 740 31 31" x="84" y="740">
        <svg width="20" height="19" xmlns="http://www.w3.org/2000/svg"
             viewBox="0.5 0 19 19" fill="#09acce" x="87" y="748">
            <svg xmlns="http://www.w3.org/2000/svg"
                 width="20" height="19" viewBox="0.606 0.043 18.403 18.403">
                <path paint-order="stroke fill markers" fill-rule="evenodd"
                      d="M5.723.803a2.604 2.604 0 0 0-3.677 0l-.357.357a2.604 2.604 0 0 0-.191 3.463L.606 7.386l11.06 11.06 2.762-.892c.473.379 1.049.569 1.625.569.666 0 1.332-.254 1.839-.76l.356-.357a2.603 2.603 0 0 0 0-3.678L5.723.803z"/>
            </svg>
        </svg>
        <svg width="9" height="10" xmlns="http://www.w3.org/2000/svg"
             viewBox="0 0.5 9 9" fill="#09acce" x="84" y="761">
            <svg xmlns="http://www.w3.org/2000/svg"
                 width="9" height="10" viewBox="0 0.484 8.568 8.568">
                <path paint-order="stroke fill markers" fill-rule="evenodd"
                      d="M.148 5.088a3.02 3.02 0 0 0 .741 3.074c.955.835 1.98 1.082 3.075.742l4.603-1.488L1.635.484.148 5.088z"/>
            </svg>
        </svg>
        <svg width="11" height="11" xmlns="http://www.w3.org/2000/svg"
             fill="#09acce" x="86" y="757">
            <svg xmlns="http://www.w3.org/2000/svg"
                 width="11" height="11" viewBox="0.234 0.239 10.578 10.578">
                <path paint-order="stroke fill markers" fill-rule="evenodd"
                      d="M.234 2.631l8.187 8.187 2.391-.773L1.007.239.234 2.631z"/>
            </svg>
        </svg>
        <svg width="10" height="10" xmlns="http://www.w3.org/2000/svg"
             viewBox="0 0.495 10 9.01" fill="#09acce" x="100" y="744">
            <svg xmlns="http://www.w3.org/2000/svg"
                 width="10" height="10" viewBox="0.08 0.984 9.456 8.52">
                <path paint-order="stroke fill markers" fill-rule="evenodd"
                      d="M.947 9.503a.865.865 0 0 0 .613-.253c.49-.49.795-.625 1.18-.795.463-.205.987-.436 1.706-1.156.719-.719.95-1.243 1.155-1.705a3.717 3.717 0 0 1 1.976-1.976c.462-.204.986-.436 1.705-1.154a.867.867 0 1 0-1.226-1.226c-.49.49-.794.624-1.18.794-.462.205-.987.436-1.706 1.155-.719.72-.95 1.244-1.155 1.706-.17.386-.305.69-.795 1.18-.49.49-.794.625-1.18.796-.463.204-.987.436-1.706 1.155a.867.867 0 0 0 .613 1.48z"/>
            </svg>
        </svg>
        <svg width="4" height="9" xmlns="http://www.w3.org/2000/svg"
             viewBox="0.759 0 2.483 9" fill="#09acce" x="95" y="740">
            <svg xmlns="http://www.w3.org/2000/svg"
                 width="4" height="9" viewBox="0.771 0 2.395 8.683">
                <path paint-order="stroke fill markers" fill-rule="evenodd"
                      d="M.771 7.817a.867.867 0 0 0 1.734 0c0-.35.072-.476.216-.729.188-.328.445-.779.445-1.588 0-.81-.257-1.26-.445-1.589-.289-.485-.289-.97 0-1.456.188-.329.445-.779.445-1.588a.867.867 0 0 0-1.733 0c0 .349-.073.475-.217.728-.188.329-.445.779-.445 1.588 0 .81.257 1.26.445 1.589.289.485.289.97 0 1.456-.188.33-.445.78-.445 1.589z"/>
            </svg>
        </svg>
        <svg width="10" height="4" xmlns="http://www.w3.org/2000/svg"
             viewBox="0 0.621 10 2.759" fill="#09acce" x="105" y="755">
            <svg xmlns="http://www.w3.org/2000/svg"
                 width="10" height="4" viewBox="0.368 0.885 8.683 2.395">
                <path paint-order="stroke fill markers" fill-rule="evenodd"
                      d="M8.185 1.547c-.349 0-.476-.072-.728-.217-.329-.188-.78-.445-1.589-.445-.809 0-1.26.257-1.588.445-.485.29-.971.29-1.457 0-.328-.188-.778-.445-1.588-.445a.867.867 0 0 0 0 1.734c.35 0 .476.072.728.217.33.187.78.445 1.589.445.809 0 1.26-.258 1.588-.445.486-.29.971-.29 1.456 0 .33.187.78.445 1.589.445a.867.867 0 0 0 0-1.734z"/>
            </svg>
        </svg>
        <svg width="5" height="2" xmlns="http://www.w3.org/2000/svg"
             viewBox="0.42 0 4.16 2" fill="#09acce" x="100" y="742">
            <svg xmlns="http://www.w3.org/2000/svg"
                 width="5" height="2" viewBox="0.782 0.175 3.606 1.734">
                <path paint-order="stroke fill markers" fill-rule="evenodd"
                      d="M1.649 1.91H3.52a.867.867 0 0 0 0-1.735H1.649a.867.867 0 0 0 0 1.734z"/>
            </svg>
        </svg>
        <svg width="3" height="4" xmlns="http://www.w3.org/2000/svg"
             viewBox="0.201 0 2.598 4" fill="#09acce" x="100" y="745">
            <svg xmlns="http://www.w3.org/2000/svg"
                 width="3" height="4" viewBox="0.314 0.452 1.734 2.67">
                <path paint-order="stroke fill markers" fill-rule="evenodd"
                      d="M1.18 3.121a.867.867 0 0 0 .868-.866v-.937a.867.867 0 1 0-1.734 0v.937c0 .478.388.866.867.866z"/>
            </svg>
        </svg>
        <svg width="2" height="5" xmlns="http://www.w3.org/2000/svg"
             viewBox="0 0.42 2 4.159" fill="#09acce" x="110" y="749">
            <svg xmlns="http://www.w3.org/2000/svg"
                 width="2" height="5" viewBox="0.143 0.664 1.734 3.606">
                <path paint-order="stroke fill markers" fill-rule="evenodd"
                      d="M1.01 4.27a.867.867 0 0 0 .866-.867V1.53a.867.867 0 0 0-1.733 0v1.872c0 .478.388.867.866.867z"/>
            </svg>
        </svg>
        <svg width="4" height="2" xmlns="http://www.w3.org/2000/svg"
             viewBox="0.46 0 3.08 2" fill="#09acce" x="105" y="752">
            <svg xmlns="http://www.w3.org/2000/svg"
                 width="4" height="2" viewBox="0.93 0.004 2.67 1.734">
                <path paint-order="stroke fill markers" fill-rule="evenodd"
                      d="M1.797.004a.867.867 0 1 0 0 1.734h.936a.867.867 0 0 0 0-1.734h-.936z"/>
            </svg>
        </svg>
    </svg>
    <svg width="66" height="66" xmlns="http://www.w3.org/2000/svg"
         fill="#9bfff8" opacity=".361" x="66" y="722">
        <svg xmlns="http://www.w3.org/2000/svg" width="66" height="66" viewBox="0 0 65.114 65.114">
            <path paint-order="stroke fill markers" fill-rule="evenodd"
                  d="M32.557 65.114C14.553 65.114 0 50.561 0 32.557S14.553 0 32.557 0s32.557 14.553 32.557 32.557-14.553 32.557-32.557 32.557z"/>
        </svg>
    </svg>
</svg>
