<svg width="67" height="67" xmlns="http://www.w3.org/2000/svg" viewBox="65 313 67 67">
    <svg width="67" height="67" xmlns="http://www.w3.org/2000/svg"
         fill="#ffee9b" opacity=".361" x="65" y="313">
        <svg xmlns="http://www.w3.org/2000/svg"
             width="67" height="67" viewBox="0.979 0.986 65.114 65.114">
            <path paint-order="stroke fill markers" fill-rule="evenodd"
                  d="M33.536 66.1C15.532 66.1.98 51.547.98 33.543S15.532.986 33.536.986s32.557 14.553 32.557 32.557S51.54 66.1 33.536 66.1z"/>
        </svg>
    </svg>
    <svg width="29" height="35" xmlns="http://www.w3.org/2000/svg"
         viewBox="84 329 29 35" x="84" y="329">
        <svg width="17" height="18" xmlns="http://www.w3.org/2000/svg"
             viewBox="0 0.5 17 17" fill="#f9c229" x="90" y="329">
            <svg xmlns="http://www.w3.org/2000/svg"
                 width="17" height="18" viewBox="0.007 0.979 16.294 16.293">
                <path paint-order="stroke fill markers" fill-rule="evenodd"
                      d="M16.3 9.125c0 2.239-.802 4.177-2.386 5.76-1.584 1.585-3.522 2.387-5.76 2.387h-.005c-2.235 0-4.172-.803-5.756-2.386C.81 13.302.007 11.364.007 9.126c0-2.239.802-4.177 2.386-5.76C3.976 1.782 5.913.98 8.15.979h.004c2.238 0 4.176.803 5.76 2.387 1.585 1.583 2.388 3.521 2.388 5.76z"/>
            </svg>
        </svg>
        <svg width="29" height="18" xmlns="http://www.w3.org/2000/svg"
             viewBox="0 0.016 29 17.969" fill="#f9c229" x="84" y="346">
            <svg xmlns="http://www.w3.org/2000/svg" width="29" height="18" viewBox="0.257 0.318 28.221 17.486">
                <path paint-order="stroke fill markers" fill-rule="evenodd"
                      d="M28.477 11.987c0 1.766-.561 3.196-1.668 4.249-1.094 1.04-2.54 1.568-4.299 1.568H6.223c-1.759 0-3.205-.527-4.298-1.568C.818 15.182.257 13.752.257 11.986c0-.679.022-1.35.067-1.997.046-.66.138-1.38.274-2.138.138-.764.314-1.487.526-2.148.219-.684.516-1.358.883-2.005a7.59 7.59 0 0 1 1.331-1.736A5.875 5.875 0 0 1 5.253.76 6.616 6.616 0 0 1 7.695.318c.345 0 .68.141 1.324.56.403.264.867.563 1.38.89.443.283 1.043.548 1.784.787a7.11 7.11 0 0 0 2.183.353c.725 0 1.46-.119 2.183-.353.741-.24 1.342-.504 1.784-.786.519-.331.983-.63 1.38-.89.645-.42.978-.561 1.324-.561.88 0 1.701.149 2.443.442a5.88 5.88 0 0 1 1.913 1.202c.503.481.951 1.066 1.333 1.736.367.647.664 1.321.883 2.004.212.662.388 1.385.526 2.15.135.759.228 1.478.273 2.137.046.644.069 1.316.07 1.998z"/>
            </svg>
        </svg>
    </svg>
</svg>
