<svg width="66" height="66" xmlns="http://www.w3.org/2000/svg" viewBox="245 518 66 66">
    <svg width="66" height="66" xmlns="http://www.w3.org/2000/svg"
         fill="#ffd09b" opacity=".361" x="245" y="518">
        <svg xmlns="http://www.w3.org/2000/svg"
             width="66" height="66" viewBox="0 0 65.114 65.114">
            <path paint-order="stroke fill markers" fill-rule="evenodd"
                  d="M32.557 65.114C14.553 65.114 0 50.561 0 32.557S14.553 0 32.557 0s32.557 14.553 32.557 32.557-14.553 32.557-32.557 32.557z"/>
        </svg>
    </svg>
    <svg width="32" height="26" xmlns="http://www.w3.org/2000/svg"
         viewBox="261 538 32 26" x="261" y="538">
        <svg width="23" height="11" xmlns="http://www.w3.org/2000/svg"
             viewBox="0 0.371 23 10.258" fill="#ec6c0b" x="266" y="553">
            <svg xmlns="http://www.w3.org/2000/svg"
                 width="23" height="11" viewBox="0.098 0.348 22.5 10.035">
                <path paint-order="stroke fill markers" fill-rule="evenodd"
                      d="M12.233 1.234v4.722a.886.886 0 0 1-1.77 0V1.234c0-.49.396-.886.885-.886H.098l.764 7.643a2.648 2.648 0 0 0 2.643 2.392H19.19a2.648 2.648 0 0 0 2.643-2.392l.765-7.643h-11.25c.489 0 .885.397.885.886zM6.84 6.815a.886.886 0 0 1-1.074-.644l-1.18-4.723a.885.885 0 1 1 1.718-.43l1.18 4.723a.886.886 0 0 1-.644 1.074zm8.371-1.074l1.181-4.722a.886.886 0 0 1 1.718.43L16.93 6.17a.886.886 0 0 1-1.719-.43z"/>
            </svg>
        </svg>
        <svg width="32" height="14" xmlns="http://www.w3.org/2000/svg"
             viewBox="0.174 0 31.652 14" fill="#ec6c0b" x="261" y="538">
            <svg xmlns="http://www.w3.org/2000/svg" width="32" height="14" viewBox="1 0 30.696 13.577">
                <path paint-order="stroke fill markers" fill-rule="evenodd"
                      d="M28.45 7.084h-3.146l-1.278-5.112A2.6 2.6 0 0 0 21.5 0c-.808 0-1.555.365-2.052 1.001a2.588 2.588 0 0 0-.474 2.234l.962 3.849H12.76l.963-3.85a2.588 2.588 0 0 0-.474-2.233A2.588 2.588 0 0 0 11.196 0 2.6 2.6 0 0 0 8.67 1.972L7.392 7.084H4.246A3.25 3.25 0 0 0 1 10.33a3.25 3.25 0 0 0 3.246 3.247H28.45a3.25 3.25 0 0 0 3.247-3.247 3.25 3.25 0 0 0-3.247-3.246z"/>
            </svg>
        </svg>
    </svg>
</svg>
