<svg width="66" height="66" xmlns="http://www.w3.org/2000/svg" viewBox="245 722 66 66">
    <svg width="29" height="29" xmlns="http://www.w3.org/2000/svg"
         viewBox="264 741 29 29" x="264" y="741">
        <svg width="7" height="7" xmlns="http://www.w3.org/2000/svg"
             fill="#bf0080" x="266" y="743">
            <svg xmlns="http://www.w3.org/2000/svg"
                 width="7" height="7" viewBox="0.973 0.973 5.677 5.677">
                <path paint-order="stroke fill markers" fill-rule="evenodd"
                      d="M3.812 6.65A2.841 2.841 0 0 0 6.65 3.812 2.841 2.841 0 0 0 3.812.973 2.842 2.842 0 0 0 .973 3.812 2.842 2.842 0 0 0 3.812 6.65z"/>
            </svg>
        </svg>
        <svg width="7" height="7" xmlns="http://www.w3.org/2000/svg"
             fill="#bf0080" x="283" y="760">
            <svg xmlns="http://www.w3.org/2000/svg"
                 width="7" height="7" viewBox="0.462 0.462 5.677 5.677">
                <path paint-order="stroke fill markers" fill-rule="evenodd"
                      d="M3.3.462A2.841 2.841 0 0 0 .463 3.301a2.842 2.842 0 0 0 2.839 2.838A2.842 2.842 0 0 0 6.139 3.3 2.842 2.842 0 0 0 3.3.462z"/>
            </svg>
        </svg>
        <svg width="24" height="24" xmlns="http://www.w3.org/2000/svg"
             fill="#bf0080" x="266" y="743">
            <svg xmlns="http://www.w3.org/2000/svg"
                 width="24" height="24" viewBox="0.433 0.433 23.247 23.247">
                <path paint-order="stroke fill markers" fill-rule="evenodd"
                      d="M21.247 9.623a2.437 2.437 0 0 0-2.294 1.622H16.03a4.036 4.036 0 0 0-.592-1.423l3.918-3.918a5.324 5.324 0 0 1-1.147-1.147L14.29 8.675a4.033 4.033 0 0 0-1.423-.592V5.16a2.437 2.437 0 0 0 1.622-2.294A2.436 2.436 0 0 0 12.056.433a2.436 2.436 0 0 0-2.433 2.432c0 1.058.678 1.96 1.622 2.294v2.924a4.03 4.03 0 0 0-1.423.592L7.485 6.338c-.31.448-.699.837-1.147 1.147l2.337 2.337a4.028 4.028 0 0 0-.592 1.423H5.16a2.436 2.436 0 0 0-2.293-1.622 2.436 2.436 0 0 0-2.433 2.433 2.436 2.436 0 0 0 2.433 2.433 2.436 2.436 0 0 0 2.293-1.622h2.924c.105.517.31.998.592 1.424l-3.918 3.917c.438.322.825.709 1.147 1.147l3.918-3.918c.425.282.906.487 1.423.592v2.924a2.437 2.437 0 0 0-1.622 2.294 2.436 2.436 0 0 0 2.433 2.432 2.436 2.436 0 0 0 2.433-2.432 2.437 2.437 0 0 0-1.622-2.294V16.03a4.03 4.03 0 0 0 1.423-.592l2.338 2.337c.309-.448.698-.837 1.146-1.146l-2.337-2.337c.282-.426.487-.907.592-1.424h2.924a2.437 2.437 0 0 0 2.294 1.622 2.436 2.436 0 0 0 2.432-2.433 2.436 2.436 0 0 0-2.432-2.433z"/>
            </svg>
        </svg>
        <svg width="8" height="9" xmlns="http://www.w3.org/2000/svg"
             viewBox="0 0.5 8 8" fill="#bf0080" x="264" y="761">
            <svg xmlns="http://www.w3.org/2000/svg"
                 width="8" height="9" viewBox="0 0.814 7.298 7.298">
                <path paint-order="stroke fill markers" fill-rule="evenodd"
                      d="M3.65.814A3.653 3.653 0 0 0 0 4.464a3.653 3.653 0 0 0 3.65 3.648 3.653 3.653 0 0 0 3.648-3.649A3.653 3.653 0 0 0 3.65.814z"/>
            </svg>
        </svg>
        <svg width="9" height="8" xmlns="http://www.w3.org/2000/svg"
             viewBox="0.5 0 8 8" fill="#bf0080" x="284" y="741">
            <svg xmlns="http://www.w3.org/2000/svg"
                 width="9" height="8" viewBox="0.814 0 7.298 7.298">
                <path paint-order="stroke fill markers" fill-rule="evenodd"
                      d="M4.463 0a3.653 3.653 0 0 0-3.65 3.65 3.653 3.653 0 0 0 3.65 3.648 3.653 3.653 0 0 0 3.65-3.649A3.653 3.653 0 0 0 4.462 0z"/>
            </svg>
        </svg>
    </svg>
    <svg width="66" height="66" xmlns="http://www.w3.org/2000/svg"
         fill="#f59bff" opacity=".361" x="245" y="722">
        <svg xmlns="http://www.w3.org/2000/svg" width="66" height="66" viewBox="0 0 65.114 65.114">
            <path paint-order="stroke fill markers" fill-rule="evenodd"
                  d="M32.557 65.114C14.553 65.114 0 50.561 0 32.557S14.553 0 32.557 0s32.557 14.553 32.557 32.557-14.553 32.557-32.557 32.557z"/>
        </svg>
    </svg>
</svg>
