<svg width="181" height="194" xmlns="http://www.w3.org/2000/svg" viewBox="100 182 181 194">
    <svg width="121" height="166" xmlns="http://www.w3.org/2000/svg"
         viewBox="129 201 121 166" x="129" y="201">
        <svg width="121" height="143" xmlns="http://www.w3.org/2000/svg"
             viewBox="0.29 0 120.42 143" fill="#3ad9f2" x="129" y="224">
            <svg xmlns="http://www.w3.org/2000/svg"
                 width="121" height="143" viewBox="0.379 0.255 119.956 142.449">
                <path paint-order="stroke fill markers" fill-rule="evenodd"
                      d="M15.374.255h89.967c8.282 0 14.995 6.713 14.995 14.995v112.46c0 8.28-6.713 14.994-14.995 14.994H15.374c-8.281 0-14.995-6.713-14.995-14.995V15.25C.38 6.97 7.093.255 15.374.255z"/>
            </svg>
        </svg>
        <svg width="91" height="114" xmlns="http://www.w3.org/2000/svg"
             viewBox="0 0.125 91 113.75" fill="none" x="151" y="246">
            <svg xmlns="http://www.w3.org/2000/svg"
                 width="91" height="114" viewBox="0.871 0.748 89.967 112.459">
                <path paint-order="stroke fill markers"
                      d="M83.341.748H8.368A7.498 7.498 0 0 0 .871 8.245v97.464a7.497 7.497 0 0 0 7.497 7.498h61.266c3.975 0 7.79-1.58 10.602-4.391l6.21-6.211a14.995 14.995 0 0 0 4.392-10.603V8.245A7.497 7.497 0 0 0 83.341.748z"/>
            </svg>
        </svg>
        <svg width="91" height="113" xmlns="http://www.w3.org/2000/svg"
             viewBox="0.3 0 90.399 113" fill="#e4e7fb" x="144" y="239">
            <svg xmlns="http://www.w3.org/2000/svg"
                 width="91" height="113" viewBox="0.374 0.25 89.967 112.459">
                <path paint-order="stroke fill markers" fill-rule="evenodd"
                      d="M88.145 92.414l-18.1 18.1a7.497 7.497 0 0 1-5.3 2.195H7.87a7.497 7.497 0 0 1-7.497-7.496V7.748A7.497 7.497 0 0 1 7.871.25h74.974a7.497 7.497 0 0 1 7.496 7.498v79.364c0 1.988-.79 3.896-2.196 5.302z"/>
            </svg>
        </svg>
        <svg width="76" height="16" xmlns="http://www.w3.org/2000/svg"
             viewBox="0 0.4 76 15.2" fill="#c2cbff" x="151" y="239">
            <svg xmlns="http://www.w3.org/2000/svg"
                 width="76" height="16" viewBox="0.871 0.25 74.972 14.995">
                <path paint-order="stroke fill markers" fill-rule="evenodd"
                      d="M8.368.25h59.98a7.497 7.497 0 0 1 7.495 7.498 7.497 7.497 0 0 1-7.496 7.497H8.368a7.497 7.497 0 1 1 0-14.995z"/>
            </svg>
        </svg>
        <svg width="16" height="16" xmlns="http://www.w3.org/2000/svg"
             fill="#ff75e3" x="159" y="269">
            <svg xmlns="http://www.w3.org/2000/svg"
                 width="16" height="16" viewBox="0.368 0.239 14.995 14.995">
                <path paint-order="stroke fill markers" fill-rule="evenodd"
                      d="M15.363 7.737a7.497 7.497 0 1 1-14.994 0 7.497 7.497 0 0 1 14.994 0z"/>
            </svg>
        </svg>
        <svg width="39" height="16" xmlns="http://www.w3.org/2000/svg"
             viewBox="0 0.2 39 15.6" fill="#33527d" x="181" y="269">
            <svg xmlns="http://www.w3.org/2000/svg"
                 width="39" height="16" viewBox="0.861 0.239 37.486 14.995">
                <path paint-order="stroke fill markers" fill-rule="evenodd"
                      d="M8.357.24H30.85a7.497 7.497 0 1 1 0 14.994H8.357a7.498 7.498 0 0 1 0-14.995z"/>
            </svg>
        </svg>
        <svg width="39" height="16" xmlns="http://www.w3.org/2000/svg"
             viewBox="0 0.2 39 15.599" fill="#33527d" x="181" y="291">
            <svg xmlns="http://www.w3.org/2000/svg"
                 width="39" height="16" viewBox="0.861 0.731 37.486 14.994">
                <path paint-order="stroke fill markers" fill-rule="evenodd"
                      d="M8.357.731H30.85a7.497 7.497 0 1 1 0 14.994H8.357a7.497 7.497 0 0 1 0-14.994z"/>
            </svg>
        </svg>
        <svg width="39" height="16" xmlns="http://www.w3.org/2000/svg"
             viewBox="0 0.2 39 15.6" fill="#33527d" x="181" y="314">
            <svg xmlns="http://www.w3.org/2000/svg"
                 width="39" height="16" viewBox="0.861 0.223 37.486 14.995">
                <path paint-order="stroke fill markers" fill-rule="evenodd"
                      d="M8.357.223H30.85a7.497 7.497 0 1 1 0 14.995H8.357a7.498 7.498 0 0 1 0-14.995z"/>
            </svg>
        </svg>
        <svg width="16" height="16" xmlns="http://www.w3.org/2000/svg"
             viewBox="0 0.001 16 15.999" fill="#079cff" x="159" y="291">
            <svg xmlns="http://www.w3.org/2000/svg"
                 width="16" height="16" viewBox="0.368 0.731 14.995 14.994">
                <path paint-order="stroke fill markers" fill-rule="evenodd"
                      d="M15.363 8.229a7.497 7.497 0 0 1-7.497 7.496 7.497 7.497 0 1 1 0-14.994 7.497 7.497 0 0 1 7.497 7.498z"/>
            </svg>
        </svg>
        <svg width="16" height="16" xmlns="http://www.w3.org/2000/svg"
             fill="#ffbe00" x="159" y="314">
            <svg xmlns="http://www.w3.org/2000/svg"
                 width="16" height="16" viewBox="0.368 0.223 14.995 14.995">
                <path paint-order="stroke fill markers" fill-rule="evenodd"
                      d="M15.363 7.72a7.498 7.498 0 1 1-14.995 0 7.498 7.498 0 0 1 14.995 0z"/>
            </svg>
        </svg>
        <svg width="76" height="46" xmlns="http://www.w3.org/2000/svg"
             viewBox="0 0.2 76 45.6" fill="#7d8fac" x="151" y="201">
            <svg xmlns="http://www.w3.org/2000/svg"
                 width="76" height="46" viewBox="0.871 0.764 74.974 44.984">
                <path paint-order="stroke fill markers" fill-rule="evenodd"
                      d="M64.598 23.255H60.85C60.85 10.834 50.78.764 38.357.764c-12.421 0-22.491 10.07-22.491 22.491h-3.749c-6.21 0-11.246 5.036-11.246 11.247 0 6.21 5.035 11.246 11.246 11.246h52.481c6.211 0 11.247-5.035 11.247-11.246s-5.036-11.247-11.247-11.247zm-26.24 7.498a7.498 7.498 0 1 1 0-14.996 7.498 7.498 0 0 1 0 14.996z"/>
            </svg>
        </svg>
    </svg>
    <svg width="181" height="143" xmlns="http://www.w3.org/2000/svg"
         viewBox="100 188 181 143" x="100" y="188">
        <svg width="16" height="16" xmlns="http://www.w3.org/2000/svg"
             fill="none" stroke-miterlimit="100" stroke="#32cbf0" stroke-width="4" x="262" y="296">
            <svg xmlns="http://www.w3.org/2000/svg"
                 width="16" height="16" viewBox="0.496 0.767 14.726 14.726">
                <path paint-order="stroke fill markers"
                      d="M7.86 15.493A7.356 7.356 0 0 1 .495 8.13 7.356 7.356 0 0 1 7.859.767a7.356 7.356 0 0 1 7.363 7.363 7.356 7.356 0 0 1-7.363 7.363z"/>
            </svg>
        </svg>
        <svg width="20" height="20" xmlns="http://www.w3.org/2000/svg"
             fill="none" stroke-miterlimit="100" stroke="#ffbe00" stroke-width="4" x="250" y="188">
            <svg xmlns="http://www.w3.org/2000/svg"
                 width="20" height="20" viewBox="0.715 0.95 18.993 18.993">
                <path paint-order="stroke fill markers"
                      d="M10.212.95a9.497 9.497 0 1 1 0 18.993 9.497 9.497 0 0 1 0-18.993z"/>
            </svg>
        </svg>
        <svg width="19" height="20" xmlns="http://www.w3.org/2000/svg"
             viewBox="0 0.5 19 19" fill="none" stroke-miterlimit="100" stroke="#ff75e3" stroke-width="4" opacity=".302"
             x="106" y="311">
            <svg xmlns="http://www.w3.org/2000/svg"
                 width="19" height="20" viewBox="0.233 0.547 18.653 18.653">
                <path paint-order="stroke fill markers"
                      d="M9.56.547a9.327 9.327 0 1 1 0 18.654 9.327 9.327 0 0 1 0-18.654z"/>
            </svg>
        </svg>
        <svg width="11" height="11" xmlns="http://www.w3.org/2000/svg"
             fill="#ff75e3" x="270" y="254">
            <svg xmlns="http://www.w3.org/2000/svg"
                 width="11" height="11" viewBox="0.35 0.605 9.817 9.817">
                <path paint-order="stroke fill markers" fill-rule="evenodd"
                      d="M5.259 10.423a4.904 4.904 0 0 1-4.91-4.909A4.904 4.904 0 0 1 5.26.605a4.904 4.904 0 0 1 4.908 4.909 4.904 4.904 0 0 1-4.908 4.909z"/>
            </svg>
        </svg>
        <svg width="13" height="13" xmlns="http://www.w3.org/2000/svg"
             fill="#3ad9f2" x="100" y="266">
            <svg xmlns="http://www.w3.org/2000/svg"
                 width="13" height="13" viewBox="0.379 0.496 11.781 11.781">
                <path paint-order="stroke fill markers" fill-rule="evenodd"
                      d="M6.27 12.276a5.885 5.885 0 0 1-5.89-5.89A5.885 5.885 0 0 1 6.27.496a5.885 5.885 0 0 1 5.89 5.89 5.885 5.885 0 0 1-5.89 5.89z"/>
            </svg>
        </svg>
    </svg>
    <svg width="36" height="40" xmlns="http://www.w3.org/2000/svg"
         viewBox="104 182 36 40" x="104" y="182">
        <svg width="26" height="39" xmlns="http://www.w3.org/2000/svg"
             viewBox="106 182 26 39" x="106" y="182">
            <svg width="13" height="14" xmlns="http://www.w3.org/2000/svg"
                 viewBox="0.196 0 12.608 14" fill="#ff52a8" x="119" y="207">
                <svg xmlns="http://www.w3.org/2000/svg"
                     width="13" height="14" viewBox="0.381 0.01 11.973 13.295">
                    <path paint-order="stroke fill markers" fill-rule="evenodd"
                          d="M9.806 12.685a4.952 4.952 0 0 1-6.724-1.928L.848 6.727a3.734 3.734 0 0 1 1.454-5.07L4.43.476A3.734 3.734 0 0 1 9.5 1.931l2.234 4.03a4.952 4.952 0 0 1-1.928 6.724z"/>
                </svg>
            </svg>
            <svg width="11" height="14" xmlns="http://www.w3.org/2000/svg"
                 viewBox="0 0.363 11 13.274" fill="#ff52a8" x="106" y="182">
                <svg xmlns="http://www.w3.org/2000/svg"
                     width="11" height="14" viewBox="0.498 0.547 10.471 12.636">
                    <path paint-order="stroke fill markers" fill-rule="evenodd"
                          d="M9.047 12.584l-.237.132a3.734 3.734 0 0 1-5.07-1.454L.982 6.286a3.87 3.87 0 0 1 1.506-5.255 3.87 3.87 0 0 1 5.255 1.507l2.758 4.976a3.734 3.734 0 0 1-1.454 5.07z"/>
                </svg>
            </svg>
        </svg>
        <svg width="30" height="30" xmlns="http://www.w3.org/2000/svg"
             viewBox="0 0.156 30 29.688" fill="#feeb70" x="104" y="185">
            <svg xmlns="http://www.w3.org/2000/svg"
                 width="30" height="30" viewBox="0.404 0.942 29.047 28.744">
                <path paint-order="stroke fill markers" fill-rule="evenodd"
                      d="M7.609 2.442l-1.033.573C.796 6.219-1.3 13.527 1.904 19.307l5.39 9.724c.34.614 1.115.836 1.729.496l19.772-10.96c.614-.34.836-1.115.496-1.729L23.9 7.114C20.697 1.334 13.388-.761 7.609 2.442z"/>
            </svg>
        </svg>
        <svg width="32" height="22" xmlns="http://www.w3.org/2000/svg"
             viewBox="0.141 0 31.718 22" fill="#fef7cb" x="108" y="200">
            <svg xmlns="http://www.w3.org/2000/svg"
                 width="32" height="22" viewBox="0.802 0.406 30.274 20.998">
                <path paint-order="stroke fill markers" fill-rule="evenodd"
                      d="M28.763 9.134L7.642 20.842a4.496 4.496 0 0 1-6.105-1.75l-.172-.31a4.496 4.496 0 0 1 1.75-6.106L24.237.968a4.496 4.496 0 0 1 6.105 1.75l.172.311a4.496 4.496 0 0 1-1.75 6.105z"/>
            </svg>
        </svg>
    </svg>
    <svg width="49" height="49" xmlns="http://www.w3.org/2000/svg"
         viewBox="0.5 0 48 49" fill="#fb5ec7" x="214" y="327">
        <svg xmlns="http://www.w3.org/2000/svg"
             width="49" height="49" viewBox="0.38 0 48 49">
            <path paint-order="stroke fill markers" fill-rule="evenodd"
                  d="M20.38 0h8c11.06 0 20 8.94 20 20v9c0 11.06-8.94 20-20 20h-8c-11.06 0-20-8.94-20-20v-9c0-11.06 8.94-20 20-20z"/>
        </svg>
    </svg>
    <svg width="28" height="21" xmlns="http://www.w3.org/2000/svg"
         viewBox="0 0.059 28 20.882" fill="#e8ebff" x="225" y="341">
        <svg xmlns="http://www.w3.org/2000/svg" width="28" height="21" viewBox="0.38 1 26.791 19.98">
            <path paint-order="stroke fill markers" fill-rule="evenodd"
                  d="M10.37 20.98a3.178 3.178 0 0 1-2.249-.931l-6.81-6.811a3.18 3.18 0 0 1 4.496-4.496l4.562 4.562L21.743 1.931a3.179 3.179 0 1 1 4.496 4.496L12.617 20.05a3.178 3.178 0 0 1-2.248.931z"/>
        </svg>
    </svg>
</svg>
